<svg width="588" height="555" viewBox="0 0 588 555" fill="none" xmlns="http://www.w3.org/2000/svg">
<path d="M38 133.501H142.75V340.376H38C31.3696 340.376 25.0107 337.743 20.3223 333.054C15.6339 328.366 13 322.007 13 315.376V158.501C13 151.871 15.6339 145.512 20.3223 140.824C25.0107 136.135 31.3696 133.501 38 133.501Z" stroke="gray" stroke-width="25"/>
<path d="M142.75 340.376V133.501C142.75 133.501 197.375 134.751 288.25 133.501C379.125 132.251 485.5 74.7514 554.625 16.0014C556.433 14.4549 558.644 13.4564 561 13.1232C563.356 12.79 565.757 13.136 567.923 14.1204C570.089 15.1049 571.929 16.6869 573.227 18.6808C574.525 20.6746 575.226 22.9974 575.25 25.3764V449.001C575.244 451.334 574.586 453.618 573.351 455.595C572.115 457.573 570.35 459.166 568.256 460.193C566.163 461.221 563.823 461.642 561.503 461.409C559.182 461.176 556.973 460.299 555.125 458.876C510.625 423.876 399.875 345.626 292.625 342.376C229.875 340.376 179.125 340.376 142.75 340.376Z" stroke="gray" stroke-width="25"/>
<path d="M185.25 537.751H125.25C118.62 537.751 112.261 535.118 107.572 530.429C102.884 525.741 100.25 519.382 100.25 512.751L87.75 340.501H197.75L210.25 512.751C210.25 519.382 207.616 525.741 202.928 530.429C198.239 535.118 191.88 537.751 185.25 537.751Z" stroke="gray" stroke-width="25"/>
<path fill-rule="evenodd" clip-rule="evenodd" d="M467.828 489.435C475.333 496.909 485.511 501.109 496.125 501.109C506.739 501.109 516.917 496.909 524.422 489.435C531.927 481.96 536.143 471.822 536.143 461.251C536.143 450.681 531.927 440.543 524.422 433.068C516.917 425.594 506.739 421.394 496.125 421.394C485.511 421.394 475.333 425.594 467.828 433.068C460.323 440.543 456.107 450.681 456.107 461.251C456.107 470.108 459.066 478.661 464.44 485.598C465.48 486.94 466.611 488.223 467.828 489.435ZM477.26 442.463C482.263 437.48 489.049 434.68 496.125 434.68C503.201 434.68 509.987 437.48 514.99 442.463C519.993 447.446 522.804 454.204 522.804 461.251C522.804 468.299 519.993 475.057 514.99 480.04C509.987 485.023 503.201 487.823 496.125 487.823C489.049 487.823 482.263 485.023 477.26 480.04C472.257 475.057 469.446 468.299 469.446 461.251C469.446 454.204 472.257 447.446 477.26 442.463Z" fill="gray"/>
<path fill-rule="evenodd" clip-rule="evenodd" d="M514.613 368.251C516.026 368.252 517.401 368.698 518.542 369.526C519.683 370.355 520.531 371.523 520.963 372.862L528.3 395.567C531.381 397.068 534.329 398.755 537.144 400.655L560.568 395.633C561.949 395.34 563.388 395.49 564.678 396.063C565.967 396.636 567.041 397.602 567.744 398.822L586.233 430.694C586.939 431.913 587.238 433.324 587.087 434.723C586.936 436.123 586.342 437.438 585.392 438.48L569.318 456.15C569.552 459.538 569.552 462.938 569.318 466.327L585.392 484.023C586.342 485.065 586.936 486.38 587.087 487.779C587.238 489.179 586.939 490.59 586.233 491.809L567.744 523.694C567.039 524.912 565.965 525.875 564.675 526.445C563.385 527.016 561.947 527.164 560.568 526.87L537.144 521.848C534.342 523.734 531.381 525.435 528.313 526.936L520.963 549.641C520.531 550.98 519.683 552.148 518.542 552.977C517.401 553.805 516.026 554.251 514.613 554.251H477.637C476.224 554.251 474.849 553.805 473.708 552.977C472.567 552.148 471.719 550.98 471.287 549.641L463.964 526.949C460.891 525.453 457.926 523.743 455.093 521.834L431.682 526.87C430.301 527.163 428.862 527.013 427.572 526.44C426.283 525.867 425.209 524.901 424.506 523.681L406.017 491.809C405.311 490.59 405.012 489.179 405.163 487.779C405.314 486.38 405.908 485.065 406.858 484.023L422.932 466.327C422.699 462.947 422.699 459.556 422.932 456.176L406.858 438.48C405.908 437.438 405.314 436.123 405.163 434.723C405.012 433.324 405.311 431.913 406.017 430.694L424.506 398.809C425.211 397.591 426.285 396.628 427.575 396.058C428.865 395.487 430.303 395.338 431.682 395.633L455.093 400.669C457.921 398.769 460.882 397.055 463.964 395.554L471.3 372.862C471.731 371.527 472.575 370.362 473.71 369.534C474.846 368.706 476.216 368.257 477.623 368.251H514.6H514.613ZM482.519 381.537H509.731H509.745L517.361 405.026L522.457 407.497C524.966 408.718 527.386 410.112 529.7 411.669L534.409 414.831L558.647 409.65L572.266 433.139L555.632 451.433L556.032 457.066C556.225 459.849 556.225 462.641 556.032 465.423L555.632 471.056L572.253 489.364L558.647 512.853L534.409 507.658L529.7 510.834C527.386 512.39 524.966 513.784 522.457 515.005L517.361 517.477L509.758 540.966H482.519L474.929 517.49L469.82 515.005C467.308 513.781 464.884 512.388 462.563 510.834L457.841 507.658L433.616 512.853L419.997 489.364L467.828 489.435C466.611 488.223 465.48 486.94 464.44 485.598L449.125 468.251C448.933 465.474 436.039 459.858 436.231 457.08L436.631 451.447L420.024 433.139L433.63 409.65L457.854 414.858L462.576 411.669C464.897 410.115 467.321 408.722 469.833 407.497L474.942 405.013L482.519 381.537Z" fill="gray"/>
<path d="M509.731 381.537H482.519L474.942 405.013L469.833 407.497C467.321 408.722 464.897 410.115 462.576 411.669L457.854 414.858L433.63 409.65L420.024 433.139L436.631 451.447L436.231 457.08C436.039 459.858 448.933 465.474 449.125 468.251L464.44 485.598C459.066 478.661 456.107 470.108 456.107 461.251C456.107 450.681 460.323 440.543 467.828 433.068C475.333 425.594 485.511 421.394 496.125 421.394C506.739 421.394 516.917 425.594 524.422 433.068C531.927 440.543 536.143 450.681 536.143 461.251C536.143 471.822 531.927 481.96 524.422 489.435C516.917 496.909 506.739 501.109 496.125 501.109C485.511 501.109 475.333 496.909 467.828 489.435L419.997 489.364L433.616 512.853L457.841 507.658L462.563 510.834C464.884 512.388 467.308 513.781 469.82 515.005L474.929 517.49L482.519 540.966H509.758L517.361 517.477L522.457 515.005C524.966 513.784 527.386 512.39 529.7 510.834L534.409 507.658L558.647 512.853L572.253 489.364L555.632 471.056L556.032 465.423C556.225 462.641 556.225 459.849 556.032 457.066L555.632 451.433L572.266 433.139L558.647 409.65L534.409 414.831L529.7 411.669C527.386 410.112 524.966 408.718 522.457 407.497L517.361 405.026L509.745 381.537H509.731Z" fill="gray"/>
</svg>
