<svg width="700" height="700" viewBox="0 0 700 700" fill="none" xmlns="http://www.w3.org/2000/svg">
<path d="M637.953 421.203L636.297 404.62L635.753 404.673L635.213 404.763L637.953 421.203ZM637.953 421.203L639.613 437.79L640.157 437.733L640.693 437.643L637.953 421.203ZM503.263 603.947L513.82 591.047L513.677 590.933L503.263 603.947ZM503.263 603.947L492.71 616.847L492.853 616.96L503.263 603.947ZM196.736 603.963L186.182 591.063L185.918 591.28L185.663 591.507L196.736 603.963ZM196.736 603.963L207.289 616.86L207.553 616.647L207.808 616.42L196.736 603.963ZM62.0517 278.795V262.128H61.2204L60.3934 262.211L62.0517 278.795ZM62.0517 278.795L62.052 295.46H62.8833L63.7103 295.38L62.0517 278.795ZM437.79 60.3897C437.087 53.382 436.49 47.315 435.65 42.32C434.783 37.1607 433.503 32.0553 430.937 27.0807L401.313 42.36C401.657 43.029 402.193 44.36 402.777 47.8397C403.39 51.483 403.877 56.2584 404.62 63.7064L437.79 60.3897ZM444.287 100.489C443.91 99.9943 442.687 97.9574 441.403 90.817C440.147 83.8357 439.183 74.3504 437.79 60.3897L404.62 63.7064C405.96 77.1077 407.053 88.144 408.597 96.7204C410.11 105.138 412.437 113.694 417.783 120.706L444.287 100.489ZM459.76 106.898C453.827 107.696 447.917 105.25 444.287 100.489L417.783 120.706C428.68 134.989 446.4 142.329 464.203 139.934L459.76 106.898ZM492.71 83.1384C481.85 92.023 474.463 98.0507 468.64 102.099C462.68 106.239 460.377 106.815 459.76 106.898L464.203 139.934C472.943 138.758 480.64 134.352 487.66 129.471C494.817 124.498 503.393 117.465 513.817 108.937L492.71 83.1384ZM521.107 64.43C515.773 66.1333 511.257 68.8374 506.997 71.873C502.87 74.812 498.16 78.679 492.71 83.1384L513.817 108.937C519.61 104.197 523.33 101.164 526.34 99.0207C529.213 96.9734 530.533 96.4114 531.25 96.1824L521.107 64.43ZM556.2 66.1803C545.1 61.37 532.63 60.748 521.107 64.43L531.25 96.1824C535.09 94.955 539.247 95.1623 542.947 96.7657L556.2 66.1803ZM582.593 87.6217C577.617 82.6417 573.31 78.325 569.497 74.9904C565.56 71.546 561.337 68.4057 556.2 66.1803L542.947 96.7657C543.64 97.065 544.897 97.7557 547.55 100.079C550.333 102.511 553.733 105.899 559.023 111.192L582.593 87.6217ZM612.377 117.404L582.593 87.6217L559.023 111.192L588.807 140.974L612.377 117.404ZM633.82 143.799C631.593 138.663 628.453 134.438 625.01 130.501C621.673 126.688 617.357 122.384 612.377 117.404L588.807 140.974C594.1 146.267 597.487 149.667 599.92 152.448C602.243 155.103 602.933 156.361 603.233 157.052L633.82 143.799ZM635.57 178.893C639.25 167.369 638.63 154.9 633.82 143.799L603.233 157.052C604.837 160.752 605.043 164.908 603.817 168.75L635.57 178.893ZM616.86 207.291C621.32 201.84 625.187 197.127 628.127 193.002C631.16 188.741 633.867 184.225 635.57 178.893L603.817 168.75C603.587 169.467 603.027 170.786 600.977 173.66C598.833 176.669 595.8 180.389 591.06 186.183L616.86 207.291ZM593.1 240.24C593.183 239.624 593.76 237.319 597.9 231.361C601.947 225.537 607.977 218.15 616.86 207.291L591.06 186.183C582.533 196.607 575.5 205.182 570.527 212.338C565.647 219.361 561.24 227.056 560.063 235.797L593.1 240.24ZM599.51 255.713C594.747 252.081 592.303 246.175 593.1 240.24L560.063 235.797C557.67 253.6 565.01 271.32 579.29 282.215L599.51 255.713ZM639.61 262.211C625.647 260.815 616.163 259.854 609.18 258.598C602.04 257.313 600.003 256.09 599.51 255.713L579.29 282.215C586.303 287.563 594.86 289.89 603.277 291.403C611.853 292.947 622.89 294.04 636.293 295.38L639.61 262.211ZM672.92 269.062C667.947 266.496 662.84 265.215 657.68 264.349C652.683 263.51 646.617 262.912 639.61 262.211L636.293 295.38C643.74 296.123 648.517 296.61 652.16 297.223C655.64 297.807 656.97 298.343 657.64 298.687L672.92 269.062ZM696.497 295.113C692.05 283.863 683.673 274.608 672.92 269.062L657.64 298.687C661.223 300.537 664.017 303.62 665.5 307.37L696.497 295.113ZM700 328.94C700 321.9 700.01 315.803 699.67 310.747C699.323 305.527 698.557 300.32 696.497 295.113L665.5 307.37C665.777 308.07 666.177 309.45 666.413 312.97C666.657 316.657 666.667 321.457 666.667 328.94H700ZM700 371.063V328.94H666.667V371.063H700ZM696.5 404.88C698.557 399.677 699.323 394.47 699.67 389.25C700.01 384.2 700 378.103 700 371.063H666.667C666.667 378.547 666.657 383.343 666.413 387.03C666.177 390.55 665.777 391.927 665.5 392.627L696.5 404.88ZM672.917 430.94C683.67 425.393 692.05 416.133 696.5 404.88L665.5 392.627C664.017 396.38 661.223 399.463 657.64 401.313L672.917 430.94ZM639.613 437.79C646.62 437.087 652.683 436.49 657.68 435.65C662.837 434.787 667.943 433.503 672.917 430.94L657.64 401.313C656.97 401.66 655.64 402.193 652.16 402.777C648.517 403.39 643.743 403.877 636.297 404.62L639.613 437.79ZM599.523 444.283C600.02 443.907 602.057 442.683 609.193 441.4C616.173 440.143 625.657 439.183 639.613 437.79L636.297 404.62C622.897 405.96 611.867 407.05 603.29 408.593C594.877 410.107 586.323 412.43 579.313 417.777L599.523 444.283ZM593.113 459.763C592.313 453.827 594.76 447.917 599.523 444.283L579.313 417.777C565.023 428.673 557.68 446.403 560.077 464.213L593.113 459.763ZM616.867 492.7C607.983 481.843 601.96 474.46 597.91 468.637C593.773 462.683 593.197 460.377 593.113 459.763L560.077 464.213C561.257 472.95 565.66 480.64 570.54 487.66C575.51 494.813 582.54 503.387 591.067 513.807L616.867 492.7ZM635.57 521.087C633.863 515.757 631.16 511.24 628.127 506.983C625.19 502.86 621.323 498.147 616.867 492.7L591.067 513.807C595.803 519.597 598.837 523.317 600.98 526.323C603.027 529.197 603.587 530.517 603.817 531.233L635.57 521.087ZM633.817 556.193C638.63 545.087 639.253 532.613 635.57 521.087L603.817 531.233C605.047 535.077 604.837 539.233 603.233 542.937L633.817 556.193ZM612.383 582.577C617.36 577.6 621.677 573.297 625.01 569.487C628.453 565.55 631.593 561.327 633.817 556.193L603.233 542.937C602.933 543.627 602.243 544.883 599.92 547.537C597.49 550.317 594.103 553.717 588.813 559.007L612.383 582.577ZM582.597 612.363L612.383 582.577L588.813 559.007L559.027 588.793L582.597 612.363ZM556.203 633.803C561.337 631.58 565.563 628.44 569.5 624.993C573.313 621.66 577.617 617.343 582.597 612.363L559.027 588.793C553.733 594.087 550.333 597.473 547.553 599.907C544.897 602.23 543.64 602.92 542.95 603.22L556.203 633.803ZM521.107 635.557C532.63 639.237 545.1 638.617 556.203 633.803L542.95 603.22C539.25 604.823 535.093 605.03 531.25 603.803L521.107 635.557ZM492.71 616.847C498.16 621.307 502.873 625.173 506.997 628.113C511.26 631.147 515.773 633.853 521.107 635.557L531.25 603.803C530.533 603.573 529.213 603.013 526.34 600.963C523.33 598.82 519.613 595.787 513.82 591.047L492.71 616.847ZM459.76 593.087C460.377 593.17 462.683 593.747 468.64 597.887C474.463 601.933 481.85 607.963 492.71 616.847L513.82 591.047C503.397 582.52 494.82 575.487 487.663 570.513C480.64 565.633 472.947 561.227 464.207 560.05L459.76 593.087ZM444.287 599.497C447.92 594.737 453.827 592.29 459.76 593.087L464.207 560.05C446.4 557.657 428.68 564.997 417.787 579.28L444.287 599.497ZM437.79 639.603C439.187 625.64 440.147 616.153 441.403 609.17C442.69 602.027 443.91 599.99 444.287 599.497L417.787 579.28C412.437 586.29 410.11 594.85 408.597 603.267C407.053 611.843 405.963 622.883 404.62 636.287L437.79 639.603ZM430.937 672.923C433.503 667.95 434.783 662.84 435.65 657.68C436.49 652.683 437.09 646.613 437.79 639.603L404.62 636.287C403.877 643.737 403.39 648.513 402.777 652.16C402.193 655.64 401.657 656.973 401.313 657.64L430.937 672.923ZM404.89 696.497C416.137 692.047 425.39 683.673 430.937 672.923L401.313 657.64C399.463 661.223 396.38 664.017 392.63 665.5L404.89 696.497ZM371.053 700C378.1 700 384.197 700.01 389.253 699.67C394.473 699.323 399.683 698.553 404.89 696.497L392.63 665.5C391.93 665.777 390.553 666.177 387.03 666.413C383.343 666.657 378.543 666.667 371.053 666.667V700ZM328.94 700H371.053V666.667H328.94V700ZM295.113 696.497C300.32 698.557 305.527 699.323 310.747 699.67C315.803 700.01 321.9 700 328.94 700V666.667C321.457 666.667 316.657 666.657 312.97 666.413C309.45 666.177 308.07 665.777 307.37 665.5L295.113 696.497ZM269.062 672.92C274.608 683.673 283.863 692.05 295.113 696.497L307.37 665.5C303.62 664.017 300.537 661.223 298.687 657.64L269.062 672.92ZM262.211 639.61C262.912 646.617 263.51 652.683 264.349 657.68C265.215 662.84 266.496 667.947 269.062 672.92L298.687 657.64C298.343 656.97 297.807 655.64 297.223 652.16C296.61 648.517 296.123 643.74 295.38 636.293L262.211 639.61ZM255.713 599.51C256.09 600.003 257.313 602.04 258.598 609.18C259.854 616.163 260.815 625.65 262.211 639.61L295.38 636.293C294.04 622.89 292.947 611.853 291.403 603.277C289.89 594.86 287.563 586.303 282.215 579.29L255.713 599.51ZM240.241 593.1C246.175 592.303 252.081 594.75 255.713 599.51L282.215 579.29C271.319 565.01 253.6 557.67 235.797 560.063L240.241 593.1ZM207.289 616.86C218.149 607.977 225.536 601.947 231.361 597.9C237.319 593.76 239.624 593.183 240.241 593.1L235.797 560.063C227.057 561.24 219.362 565.647 212.338 570.527C205.182 575.5 196.606 582.533 186.182 591.063L207.289 616.86ZM178.891 635.57C184.223 633.867 188.739 631.163 193 628.127C197.126 625.19 201.839 621.32 207.289 616.86L186.182 591.063C180.389 595.803 176.668 598.837 173.659 600.98C170.785 603.027 169.465 603.59 168.748 603.817L178.891 635.57ZM143.798 633.82C154.899 638.63 167.367 639.253 178.891 635.57L168.748 603.817C164.906 605.047 160.75 604.837 157.05 603.233L143.798 633.82ZM117.402 612.377C122.382 617.357 126.687 621.677 130.499 625.01C134.437 628.453 138.662 631.597 143.798 633.82L157.05 603.233C156.359 602.937 155.102 602.243 152.446 599.923C149.665 597.49 146.265 594.1 140.972 588.807L117.402 612.377ZM87.6204 582.597L117.402 612.377L140.972 588.807L111.191 559.027L87.6204 582.597ZM66.1783 556.2C68.404 561.337 71.544 565.563 74.9887 569.5C78.3237 573.313 82.6407 577.617 87.6204 582.597L111.191 559.027C105.898 553.733 102.51 550.333 100.077 547.553C97.754 544.897 97.0633 543.64 96.764 542.95L66.1783 556.2ZM64.428 521.107C60.7467 532.633 61.3687 545.1 66.1783 556.2L96.764 542.95C95.1607 539.25 94.9537 535.093 96.1807 531.25L64.428 521.107ZM83.1377 492.71C78.6777 498.16 74.8107 502.873 71.8714 506.997C68.8357 511.26 66.1317 515.777 64.428 521.107L96.1807 531.25C96.4097 530.533 96.9717 529.213 99.0194 526.34C101.163 523.33 104.196 519.61 108.936 513.817L83.1377 492.71ZM106.898 459.76C106.815 460.377 106.239 462.68 102.098 468.64C98.05 474.463 92.0223 481.85 83.1377 492.71L108.936 513.817C117.465 503.393 124.497 494.817 129.47 487.66C134.351 480.64 138.758 472.943 139.934 464.203L106.898 459.76ZM100.489 444.287C105.25 447.917 107.696 453.823 106.898 459.76L139.934 464.203C142.329 446.4 134.989 428.68 120.706 417.783L100.489 444.287ZM60.3894 437.79C74.3504 439.183 83.8357 440.147 90.8167 441.403C97.957 442.687 99.9943 443.91 100.489 444.287L120.706 417.783C113.694 412.437 105.138 410.11 96.7204 408.597C88.144 407.053 77.1074 405.96 63.706 404.62L60.3894 437.79ZM27.0807 430.937C32.0553 433.503 37.1607 434.783 42.32 435.65C47.315 436.49 53.3817 437.087 60.3894 437.79L63.706 404.62C56.258 403.877 51.483 403.39 47.8397 402.777C44.36 402.193 43.0293 401.657 42.3603 401.313L27.0807 430.937ZM3.50235 404.883C7.95069 416.137 16.328 425.393 27.0807 430.937L42.3603 401.313C38.776 399.463 35.9837 396.38 34.5007 392.63L3.50235 404.883ZM2.06494e-05 371.06C2.06494e-05 378.103 -0.00864429 384.197 0.329022 389.253C0.677689 394.47 1.44435 399.68 3.50235 404.883L34.5007 392.63C34.224 391.927 33.8233 390.55 33.588 387.03C33.342 383.343 33.3334 378.543 33.3334 371.06H2.06494e-05ZM2.06494e-05 328.943V371.06H33.3334V328.943H2.06494e-05ZM3.50435 295.11C1.44502 300.317 0.678022 305.527 0.329022 310.747C-0.00864429 315.803 2.06494e-05 321.9 2.06494e-05 328.943H33.3334C33.3334 321.457 33.342 316.657 33.5883 312.97C33.8237 309.447 34.2243 308.07 34.5013 307.37L3.50435 295.11ZM27.0764 269.064C16.3274 274.61 7.95235 283.863 3.50435 295.11L34.5013 307.37C35.984 303.62 38.7757 300.537 42.3587 298.687L27.0764 269.064ZM60.3934 262.211C53.384 262.912 47.3157 263.51 42.319 264.349C37.1587 265.216 32.052 266.497 27.0764 269.064L42.3587 298.687C43.028 298.343 44.3587 297.807 47.8393 297.223C51.484 296.61 56.2603 296.123 63.7103 295.38L60.3934 262.211ZM100.503 255.711C100.009 256.088 97.9714 257.311 90.829 258.596C83.846 259.853 74.3577 260.814 60.3934 262.211L63.7103 295.38C77.1153 294.037 88.1547 292.947 96.7334 291.403C105.153 289.887 113.712 287.56 120.725 282.21L100.503 255.711ZM106.911 240.242C107.708 246.175 105.262 252.079 100.503 255.711L120.725 282.21C135.001 271.315 142.339 253.601 139.947 235.803L106.911 240.242ZM83.1434 207.281C92.031 218.144 98.0607 225.533 102.11 231.36C106.252 237.32 106.828 239.625 106.911 240.242L139.947 235.803C138.772 227.059 134.365 219.362 129.483 212.337C124.508 205.179 117.473 196.601 108.942 186.173L83.1434 207.281ZM64.4277 178.871C66.131 184.206 68.836 188.724 71.8727 192.986C74.813 197.113 78.6817 201.828 83.1434 207.281L108.942 186.173C104.2 180.377 101.166 176.655 99.021 173.645C96.9727 170.77 96.4107 169.45 96.1817 168.732L64.4277 178.871ZM66.1774 143.79C61.3707 154.888 60.749 167.351 64.4277 178.871L96.1817 168.732C94.9557 164.892 95.1627 160.738 96.7647 157.039L66.1774 143.79ZM87.626 117.384C82.6444 122.366 78.3257 126.673 74.9897 130.486C71.544 134.425 68.403 138.652 66.1774 143.79L96.7647 157.039C97.064 156.347 97.7547 155.09 100.079 152.433C102.512 149.651 105.901 146.25 111.196 140.955L87.626 117.384ZM117.403 87.6074L87.626 117.384L111.196 140.955L140.974 111.177L117.403 87.6074ZM143.799 66.1647C138.663 68.3904 134.438 71.5304 130.501 74.975C126.688 78.31 122.383 82.6274 117.403 87.6074L140.974 111.177C146.267 105.884 149.667 102.496 152.448 100.064C155.104 97.7404 156.361 97.0497 157.052 96.7504L143.799 66.1647ZM178.892 64.4144C167.368 60.733 154.9 61.355 143.799 66.1647L157.052 96.7504C160.752 95.1474 164.908 94.94 168.749 96.167L178.892 64.4144ZM207.294 83.126C201.842 78.6657 197.129 74.798 193.003 71.8584C188.742 68.8224 184.225 66.118 178.892 64.4144L168.749 96.167C169.466 96.396 170.786 96.958 173.661 99.006C176.67 101.15 180.392 104.184 186.186 108.925L207.294 83.126ZM240.239 106.885C239.623 106.802 237.319 106.225 231.362 102.085C225.538 98.037 218.152 92.0097 207.294 83.126L186.186 108.925C196.609 117.452 205.183 124.484 212.338 129.456C219.359 134.337 227.052 138.743 235.79 139.92L240.239 106.885ZM255.716 100.474C252.084 105.237 246.175 107.684 240.239 106.885L235.79 139.92C253.599 142.318 271.325 134.976 282.222 120.687L255.716 100.474ZM262.212 60.385C260.816 74.342 259.855 83.8247 258.6 90.804C257.315 97.9427 256.093 99.9794 255.716 100.474L282.222 120.687C287.567 113.677 289.893 105.122 291.407 96.707C292.95 88.133 294.04 77.0997 295.38 63.702L262.212 60.385ZM269.06 27.085C266.495 32.0584 265.214 37.163 264.349 42.3207C263.51 47.3143 262.912 53.3797 262.212 60.385L295.38 63.702C296.123 56.256 296.61 51.4823 297.223 47.8397C297.807 44.361 298.34 43.0307 298.687 42.3617L269.06 27.085ZM295.12 3.50035C283.867 7.94902 274.606 16.3287 269.06 27.085L298.687 42.3617C300.537 38.7763 303.62 35.983 307.373 34.5L295.12 3.50035ZM328.937 2.06912e-05C321.897 2.06912e-05 315.8 -0.00864466 310.75 0.328689C305.53 0.677022 300.323 1.44369 295.12 3.50035L307.373 34.5C308.073 34.2234 309.45 33.823 312.97 33.588C316.657 33.342 321.453 33.3334 328.937 33.3334V2.06912e-05ZM371.06 2.06912e-05H328.937V33.3334H371.06V2.06912e-05ZM404.883 3.50235C399.68 1.44435 394.47 0.677689 389.253 0.329022C384.197 -0.00864423 378.103 2.06912e-05 371.06 2.06912e-05V33.3334C378.543 33.3334 383.343 33.342 387.03 33.588C390.55 33.8233 391.927 34.224 392.63 34.5007L404.883 3.50235ZM430.937 27.0807C425.393 16.328 416.137 7.95069 404.883 3.50235L392.63 34.5007C396.38 35.9837 399.463 38.776 401.313 42.36L430.937 27.0807ZM466.667 350C466.667 414.433 414.433 466.667 350 466.667V500C432.843 500 500 432.843 500 350H466.667ZM350 233.333C414.433 233.333 466.667 285.567 466.667 350H500C500 267.157 432.843 200 350 200V233.333ZM233.333 350C233.333 285.567 285.567 233.333 350 233.333V200C267.157 200 200 267.157 200 350H233.333ZM350 466.667C285.567 466.667 233.333 414.433 233.333 350H200C200 432.843 267.157 500 350 500V466.667Z" fill="gray"/>
</svg>
