<svg width="538" height="538" viewBox="0 0 538 538" fill="none" xmlns="http://www.w3.org/2000/svg">
<path d="M269 0C120.436 0 0 120.432 0 269C0 417.568 120.436 538 269 538C417.564 538 538 417.568 538 269C538 120.432 417.565 0 269 0ZM218.224 398.03C218.224 379.523 233.23 364.517 251.737 364.517C270.229 364.517 285.236 379.523 285.236 398.03C285.236 416.518 270.229 431.533 251.737 431.533C233.23 431.533 218.224 416.518 218.224 398.03ZM361.075 229.966C357.296 240.256 351.826 249.183 345.633 256.609C333.185 271.476 318.431 280.481 306.29 287.125C298.179 291.511 291.019 294.889 286.568 297.39C283.515 299.075 281.862 300.49 281.045 301.41C280.238 302.383 279.964 302.783 279.473 304.38C279.186 305.44 278.887 307.124 278.887 309.729C278.887 316.946 278.887 322.877 278.887 322.877C278.887 329.677 273.372 335.2 266.568 335.2H236.882C230.078 335.2 224.554 329.677 224.554 322.877C224.554 322.877 224.554 316.945 224.554 309.729C224.554 302.964 225.344 296.338 227.081 289.999C228.8 283.686 231.51 277.686 234.97 272.457C241.905 261.862 251.302 254.802 260.172 249.886C267.949 245.605 275.643 242.053 282.781 238.032C289.915 234.047 296.276 229.721 300.962 225.032C304.101 221.906 306.541 218.675 308.409 215.029C310.862 210.166 312.564 204.451 312.603 195.706C312.616 193.118 311.87 189.714 309.838 185.823C307.814 181.95 304.514 177.739 300.103 173.96C291.224 166.344 278.202 160.778 263.269 160.803C246.157 160.864 234.703 164.876 225.875 169.861C217.09 174.879 214.286 179.943 214.286 179.943C209.801 183.85 203.144 183.989 198.498 180.273L175.685 161.993C172.828 159.709 171.144 156.279 171.066 152.613C171 148.958 172.564 145.458 175.333 143.052C175.333 143.052 182.442 132.093 198.924 122.688C215.338 113.24 237.091 106.414 263.27 106.476C284.512 106.476 304.081 112.32 320.294 121.881C336.512 131.494 349.608 144.729 357.965 160.63C363.515 171.215 366.923 183.148 366.932 195.705C366.944 208.099 364.882 219.674 361.075 229.966Z" fill="gray" fill-opacity="0.58"/>
</svg>
