<svg width="514" height="577" viewBox="0 0 514 577" fill="none" xmlns="http://www.w3.org/2000/svg">
<mask id="path-1-inside-1_95_508" fill="white">
<path d="M0 18C0 8.05888 8.05887 0 18 0H66.124V471.988H18C8.05886 471.988 0 463.929 0 453.988V18Z"/>
</mask>
<path d="M0 18C0 8.05888 8.05887 0 18 0H66.124V471.988H18C8.05886 471.988 0 463.929 0 453.988V18Z" stroke="gray" stroke-width="50" mask="url(#path-1-inside-1_95_508)"/>
<path d="M100.326 70.6843H347.721V132.248H100.326V70.6843Z" fill="gray"/>
<path d="M100.326 160.75H347.721V183.551H100.326V160.75Z" fill="gray"/>
<mask id="path-4-inside-2_95_508" fill="white">
<path d="M53.5833 0H376.464C386.405 0 394.464 8.05887 394.464 18V453.988C394.464 463.929 386.405 471.988 376.464 471.988H53.5833V0Z"/>
</mask>
<path d="M53.5833 0H376.464C386.405 0 394.464 8.05887 394.464 18V453.988C394.464 463.929 386.405 471.988 376.464 471.988H53.5833V0Z" stroke="gray" stroke-width="50" mask="url(#path-4-inside-2_95_508)"/>
<path d="M108.257 465.775L100.619 509.519L99.4786 509.325L61.2863 502.656C57.4241 501.979 53.9874 499.8 51.7288 496.595C49.4702 493.389 48.5737 489.42 49.2358 485.555L52.656 465.82L59.4964 426.819L60.6365 420.286V465.82L108.257 465.775Z" stroke="gray" stroke-width="25"/>
<path d="M451.646 169.186L441.077 229.838L388.999 220.751V158.253L451.646 169.186Z" fill="gray"/>
<path d="M436.164 257.918L432.253 280.377L388.999 272.83V249.686L436.164 257.918Z" fill="gray"/>
<path d="M500.692 126.833L426.587 551.36C425.91 555.222 423.731 558.659 420.526 560.917C417.32 563.176 413.351 564.072 409.486 563.41L100.619 509.519L99.4786 509.325L107.083 465.775H374.167C378.097 465.775 381.867 464.213 384.647 461.434C387.426 458.654 388.988 454.885 388.988 450.954V92.3455L488.641 109.674C490.559 110.009 492.393 110.719 494.036 111.762C495.68 112.806 497.102 114.163 498.222 115.757C499.341 117.35 500.135 119.148 500.559 121.049C500.982 122.949 501.028 124.915 500.692 126.833Z" stroke="gray" stroke-width="25"/>
<path d="M60.6593 420.24V465.775H52.7017L59.5193 426.773L60.6593 420.24Z" stroke="gray" stroke-width="25"/>
<path d="M59.5192 426.773L60.6592 420.24V465.775H59.5192V426.773Z" stroke="gray" stroke-width="25"/>
</svg>
