<svg width="800" height="382" viewBox="0 0 800 382" fill="none" xmlns="http://www.w3.org/2000/svg">
<path d="M94.1971 108.647V108.618L94.197 108.589C94.0155 69.7819 123.736 41.3586 155.756 41.3586C187.618 41.3586 217.103 69.0005 217.103 108.223C217.103 148.338 187.389 177.42 155.756 177.42C123.848 177.42 94.1971 148.27 94.1971 108.647ZM472.379 91.2471C472.379 138.36 437.791 172.54 400 172.54C362.173 172.54 327.62 138.321 327.62 91.67C327.62 45.931 362.13 12.5 400 12.5C437.981 12.5 472.379 45.1995 472.379 91.2471ZM705.801 108.647C705.801 148.27 676.152 177.42 644.243 177.42C612.611 177.42 582.897 148.338 582.897 108.223C582.897 69.0003 612.382 41.3586 644.243 41.3586C676.212 41.3586 705.801 69.7388 705.801 108.647ZM227.831 251.684C209.665 269.211 195.328 290.797 186.861 312.255C179.512 330.879 175.955 351.214 179.929 369.039H37.3471C25.2616 369.039 19.4253 366.577 16.6911 364.278C14.4248 362.373 12.5 359.059 12.5 351.83C12.5 300.804 65.8628 234.887 155.544 234.887C184.866 234.887 208.502 241.681 227.831 251.684ZM787.5 351.83C787.5 359.129 785.589 362.421 783.368 364.296C780.68 366.566 774.871 369.039 762.651 369.039H620.072C624.046 351.214 620.489 330.879 613.14 312.255C604.672 290.797 590.335 269.211 572.17 251.684C591.498 241.681 615.134 234.887 644.456 234.887C734.14 234.887 787.5 300.804 787.5 351.83ZM533.261 369.039H266.526C250.514 369.039 242.307 366.637 238.33 364.005C235.565 362.176 233.826 359.624 233.826 353.316C233.826 330.772 248.323 301.421 277.339 277.241C305.976 253.377 347.762 235.523 399.787 235.523C451.925 235.523 493.765 253.381 522.427 277.245C551.468 301.424 565.964 330.773 565.964 353.316C565.964 359.623 564.225 362.175 561.459 364.005C557.482 366.637 549.273 369.039 533.261 369.039Z" stroke="gray" stroke-width="25"/>
</svg>
