<svg width="509" height="590" viewBox="0 0 509 590" fill="none" xmlns="http://www.w3.org/2000/svg">
<path d="M45.2907 326.089L57.585 328.347L56.7356 332.972L53.0486 335.891C40.4431 345.868 30.2571 358.567 23.2526 373.037C16.2488 387.506 12.6072 403.371 12.6001 419.445C12.6001 419.446 12.6001 419.447 12.6001 419.448C12.6001 419.449 12.6001 419.449 12.6001 419.45L12.6001 483.77H161.01H173.51V496.27C173.51 540.96 209.735 577.045 254.528 577.045C299.321 577.045 335.546 540.96 335.546 496.27V483.77H348.046H496.5V419.453C496.491 403.38 492.848 387.517 485.843 373.05C478.839 358.584 468.654 345.888 456.052 335.913L452.364 332.994L451.515 328.368L463.81 326.111C451.515 328.368 451.515 328.368 451.515 328.367L451.514 328.362L451.511 328.345L451.498 328.276L451.448 328.003L451.252 326.935C451.081 325.999 450.828 324.619 450.504 322.85C449.857 319.31 448.925 314.207 447.786 307.951C445.509 295.44 442.404 278.317 439.094 259.869C432.486 223.042 425.023 180.726 421.722 159.396L421.722 159.394C408.941 76.715 339.84 12.9551 254.55 12.9551C169.26 12.9551 100.16 76.7149 87.3785 159.37L45.2907 326.089ZM45.2907 326.089C57.585 328.347 57.5851 328.347 57.5853 328.346L57.5861 328.341L57.5893 328.324L57.602 328.255L57.6521 327.982L57.8478 326.915C58.0195 325.978 58.2722 324.599 58.596 322.83C59.2435 319.291 60.1758 314.189 61.3148 307.934C63.5929 295.426 66.6986 278.305 70.0092 259.859C76.6177 223.037 84.0807 180.72 87.3782 159.372L45.2907 326.089Z" stroke="gray" stroke-width="25"/>
</svg>
