<svg width="543" height="614" viewBox="0 0 543 614" fill="none" xmlns="http://www.w3.org/2000/svg">
<path d="M452.489 395.518V305.484C452.489 241.552 406.908 189.726 350.683 189.726H192.318C136.092 189.726 90.5115 241.552 90.5115 305.484V395.518C90.5115 509.174 171.543 601.31 271.5 601.31C371.458 601.31 452.489 509.174 452.489 395.518Z" stroke="gray" stroke-width="25"/>
<path d="M387.379 204.453V174.999C387.379 101.796 335.325 42.4543 271.112 42.4543C206.9 42.4543 154.845 101.796 154.845 174.999V204.453" stroke="gray" stroke-width="25"/>
<path d="M452.489 365.676H530" stroke="gray" stroke-width="25" stroke-linecap="round"/>
<path d="M90.5113 365.676H13" stroke="gray" stroke-width="25" stroke-linecap="round"/>
<path d="M336.222 57.1814L400.557 13" stroke="gray" stroke-width="25" stroke-linecap="round"/>
<path d="M206.778 57.1814L142.444 13" stroke="gray" stroke-width="25" stroke-linecap="round"/>
<path d="M491.244 542.402L439.312 518.374" stroke="gray" stroke-width="25" stroke-linecap="round"/>
<path d="M491.244 189.726L439.312 212.979" stroke="gray" stroke-width="25" stroke-linecap="round"/>
<path d="M51.7559 542.402L103.688 518.374" stroke="gray" stroke-width="25" stroke-linecap="round"/>
<path d="M51.7559 189.726L103.688 212.979" stroke="gray" stroke-width="25" stroke-linecap="round"/>
<path d="M271.113 586.583L271.113 200.577" stroke="gray" stroke-width="25" stroke-linecap="round"/>
</svg>
