<svg width="282" height="282" viewBox="0 0 282 282" fill="none" xmlns="http://www.w3.org/2000/svg">
<path d="M0 69.8756C0 57.4467 1.04929e-07 51.2321 0.976679 46.0557C5.27618 23.2677 23.101 5.44285 45.889 1.14335C51.0655 0.166672 57.28 0.166672 69.709 0.166672C75.1546 0.166672 77.8775 0.166672 80.4943 0.41144C91.7762 1.46642 102.478 5.89915 111.201 13.1305C113.224 14.8078 115.15 16.7333 119 20.584L126.75 28.3333C138.239 39.8222 143.984 45.5667 150.862 49.394C154.641 51.4963 158.65 53.1566 162.809 54.3422C170.379 56.5 178.502 56.5 194.75 56.5H200.013C237.086 56.5 255.621 56.5 267.671 67.3366C268.779 68.3334 269.834 69.3882 270.83 70.4964C281.667 82.545 281.667 101.081 281.667 138.154V169.167C281.667 222.278 281.667 248.835 265.167 265.333C248.668 281.833 222.111 281.833 169 281.833H112.667C59.555 281.833 32.9994 281.833 16.4996 265.333C1.67886e-06 248.835 0 222.278 0 169.167V69.8756Z" fill="#067BAA"/>
<path fill-rule="evenodd" clip-rule="evenodd" d="M144.354 112.833C144.354 107 149.083 102.271 154.917 102.271H225.333C231.167 102.271 235.896 107 235.896 112.833C235.896 118.667 231.167 123.396 225.333 123.396H154.917C149.083 123.396 144.354 118.667 144.354 112.833Z" fill="white"/>
<path d="M211.047 14.5449C208.885 14.25 206.31 14.25 201.159 14.25H140.833L146.043 19.6456C155.422 29.3613 159.028 32.988 163.193 35.3885C165.612 36.7819 168.176 37.8824 170.837 38.6681C175.421 40.0215 180.447 40.0983 193.711 40.0983H198.42C212.537 40.098 223.918 40.0978 232.923 41.2706C235.169 41.5631 237.334 41.9353 239.417 42.4167C236.803 27.8141 225.394 16.5012 211.047 14.5449Z" fill="#067BAA"/>
</svg>
