<svg width="566" height="589" viewBox="0 0 566 589" fill="none" xmlns="http://www.w3.org/2000/svg">
<path d="M155.234 484.489L147.596 528.233L146.456 528.039L108.263 521.37C104.401 520.693 100.964 518.514 98.7058 515.309C96.4472 512.103 95.5508 508.134 96.2129 504.269L99.6331 484.534L106.473 445.533L107.614 439V484.534L155.234 484.489Z" fill="black"/>
<path d="M111.958 444.895V490.429H104L110.818 451.428L111.958 444.895Z" fill="black"/>
<path d="M110.818 451.428L111.958 444.895V490.429H110.818V451.428Z" fill="black"/>
<path d="M565.669 151.487L491.564 576.014C490.888 579.877 488.708 583.313 485.503 585.572C482.298 587.831 478.328 588.727 474.463 588.065L165.596 534.174L164.456 533.98L172.06 490.429H439.144C443.075 490.429 446.844 488.868 449.624 486.088C452.403 483.309 453.965 479.539 453.965 475.608V117L553.618 134.329C555.536 134.664 557.37 135.373 559.013 136.417C560.657 137.46 562.079 138.818 563.199 140.411C564.318 142.005 565.112 143.803 565.536 145.703C565.959 147.604 566.005 149.569 565.669 151.487Z" fill="black"/>
<path d="M516.623 193.841L506.054 254.492L453.976 245.406V182.907L516.623 193.841Z" fill="white"/>
<path d="M501.141 282.572L497.23 305.031L453.976 297.484V274.341L501.141 282.572Z" fill="white"/>
<path d="M0 18C0 8.05888 8.05887 0 18 0H66.124V471.988H18C8.05886 471.988 0 463.929 0 453.988V18Z" fill="black"/>
<path d="M90.5832 0H413.464C423.405 0 431.464 8.05887 431.464 18V453.988C431.464 463.929 423.405 471.988 413.464 471.988H90.5832V0Z" fill="black"/>
<path d="M137.326 70.6842H384.721V132.248H137.326V70.6842Z" fill="white"/>
<path d="M137.326 160.75H384.721V183.551H137.326V160.75Z" fill="white"/>
</svg>
