<svg width="559" height="559" viewBox="0 0 559 559" fill="none" xmlns="http://www.w3.org/2000/svg">
<path d="M152 330L210.469 271.531C220.427 261.573 236.573 261.573 246.531 271.531L286.969 311.969C296.927 321.927 313.073 321.927 323.031 311.969L407 228M407 228V291.75M407 228H343.25" stroke="black" stroke-width="50" stroke-linecap="round" stroke-linejoin="round"/>
<path d="M534 279.5C534 399.471 534 459.459 496.728 496.728C459.459 534 399.471 534 279.5 534C159.527 534 99.5413 534 62.2708 496.728C25 459.459 25 399.471 25 279.5C25 159.527 25 99.5413 62.2708 62.2708C99.5413 25 159.527 25 279.5 25C399.471 25 459.459 25 496.728 62.2708C521.512 87.0524 529.816 121.877 532.598 177.7" stroke="black" stroke-width="50" stroke-linecap="round"/>
</svg>
