<svg width="557" height="671" viewBox="0 0 557 671" fill="none" xmlns="http://www.w3.org/2000/svg">
<path d="M423.114 355.556H245.336C233.549 355.556 222.244 350.873 213.909 342.538C205.574 334.203 200.892 322.898 200.892 311.111C200.892 299.324 205.574 288.019 213.909 279.684C222.244 271.349 233.549 266.667 245.336 266.667H423.114C434.901 266.667 446.206 271.349 454.541 279.684C462.876 288.019 467.558 299.324 467.558 311.111C467.558 322.898 462.876 334.203 454.541 342.538C446.206 350.873 434.901 355.556 423.114 355.556Z" fill="white"/>
<path d="M245.336 88.8889H334.225C346.012 88.8889 357.317 93.5714 365.652 101.906C373.987 110.241 378.669 121.546 378.669 133.333C378.669 145.121 373.987 156.425 365.652 164.76C357.317 173.095 346.012 177.778 334.225 177.778H245.336C233.549 177.778 222.244 173.095 213.909 164.76C205.574 156.425 200.892 145.121 200.892 133.333C200.892 121.546 205.574 110.241 213.909 101.906C222.244 93.5714 233.549 88.8889 245.336 88.8889Z" fill="white"/>
<path d="M423.114 533.333H245.336C233.549 533.333 222.244 528.651 213.909 520.316C205.574 511.981 200.892 500.676 200.892 488.889C200.892 477.101 205.574 465.797 213.909 457.462C222.244 449.127 233.549 444.444 245.336 444.444H423.114C434.901 444.444 446.206 449.127 454.541 457.462C462.876 465.797 467.558 477.101 467.558 488.889C467.558 500.676 462.876 511.981 454.541 520.316C446.206 528.651 434.901 533.333 423.114 533.333Z" fill="white"/>
<path fill-rule="evenodd" clip-rule="evenodd" d="M549.78 140L416.892 6.66667C414.795 4.55623 412.303 2.88083 409.557 1.73675C406.811 0.592661 403.866 0.0024394 400.892 0H174.225C157.553 0.199319 141.64 7.00177 129.976 18.9158C118.312 30.8298 111.849 46.8831 112.003 63.5555V558.667C111.849 575.339 118.312 591.392 129.976 603.306C141.64 615.22 157.553 622.023 174.225 622.222H494.225C510.897 622.023 526.81 615.22 538.474 603.306C550.138 591.392 556.601 575.339 556.447 558.667V155.556C556.483 152.641 555.908 149.751 554.76 147.072C553.611 144.393 551.915 141.984 549.78 140ZM334.225 88.8889H245.336C233.549 88.8889 222.244 93.5714 213.909 101.906C205.574 110.241 200.892 121.546 200.892 133.333C200.892 145.121 205.574 156.425 213.909 164.76C222.244 173.095 233.549 177.778 245.336 177.778H334.225C346.012 177.778 357.317 173.095 365.652 164.76C373.987 156.425 378.669 145.121 378.669 133.333C378.669 121.546 373.987 110.241 365.652 101.906C357.317 93.5714 346.012 88.8889 334.225 88.8889ZM245.336 533.333H423.114C434.901 533.333 446.206 528.651 454.541 520.316C462.876 511.981 467.558 500.676 467.558 488.889C467.558 477.101 462.876 465.797 454.541 457.462C446.206 449.127 434.901 444.444 423.114 444.444H245.336C233.549 444.444 222.244 449.127 213.909 457.462C205.574 465.797 200.892 477.101 200.892 488.889C200.892 500.676 205.574 511.981 213.909 520.316C222.244 528.651 233.549 533.333 245.336 533.333ZM245.336 355.556H423.114C434.901 355.556 446.206 350.873 454.541 342.538C462.876 334.203 467.558 322.898 467.558 311.111C467.558 299.324 462.876 288.019 454.541 279.684C446.206 271.349 434.901 266.667 423.114 266.667H245.336C233.549 266.667 222.244 271.349 213.909 279.684C205.574 288.019 200.892 299.324 200.892 311.111C200.892 322.898 205.574 334.203 213.909 342.538C222.244 350.873 233.549 355.556 245.336 355.556Z" fill="gray"/>
<path d="M428.927 196.824L429.096 196.993L429.271 197.156C430.128 197.953 430.809 198.92 431.27 199.996C431.731 201.072 431.962 202.233 431.948 203.403L431.947 203.479V203.556V606.667V606.724L431.948 606.782C432.071 620.145 426.891 633.012 417.542 642.562C408.209 652.094 395.484 657.544 382.148 657.722H62.3021C48.9655 657.544 36.2404 652.094 26.9083 642.562C17.5593 633.012 12.3786 620.145 12.5022 606.782L12.5027 606.724V606.667V111.556V111.498L12.5022 111.44C12.3786 98.0767 17.5593 85.2098 26.9083 75.6605C36.2408 66.128 48.9665 60.6781 62.3037 60.5H288.885C290.212 60.5016 291.525 60.765 292.749 61.2752C293.975 61.7859 295.087 62.5337 296.023 63.4757L296.03 63.4832L296.038 63.4907L428.927 196.824Z" stroke="gray" stroke-width="25"/>
</svg>
